<?xml version="1.0" encoding="utf-8"?>
<!-- Generated by IcoMoon.io -->
<!DOCTYPE svg PUBLIC "-//W3C//DTD SVG 1.1//EN" "http://www.w3.org/Graphics/SVG/1.1/DTD/svg11.dtd">
<svg version="1.1" xmlns="http://www.w3.org/2000/svg" xmlns:xlink="http://www.w3.org/1999/xlink" width="56" height="56" viewBox="0 0 56 56">
<path fill="#50e3c2" d="M49 14h-10.5v-7c0-1.925-1.575-3.5-3.5-3.5h-14c-1.925 0-3.5 1.575-3.5 3.5v7h-10.5c-3.85 0-7 3.15-7 7v28c0 3.85 3.15 7 7 7h42c3.85 0 7-3.15 7-7v-28c0-3.85-3.15-7-7-7zM21 7h14v7h-14v-7zM42 38.5h-10.5v10.5h-7v-10.5h-10.5v-7h10.5v-10.5h7v10.5h10.5v7z"></path>
</svg>
