<?xml version="1.0" encoding="utf-8"?>
<!-- Generated by IcoMoon.io -->
<!DOCTYPE svg PUBLIC "-//W3C//DTD SVG 1.1//EN" "http://www.w3.org/Graphics/SVG/1.1/DTD/svg11.dtd">
<svg version="1.1" xmlns="http://www.w3.org/2000/svg" xmlns:xlink="http://www.w3.org/1999/xlink" width="56" height="56" viewBox="0 0 56 56">
<path fill="#50e3c2" d="M50.75 7h-15.75c0-3.866-3.134-7-7-7s-7 3.134-7 7h-15.75c-0.966 0-1.75 0.784-1.75 1.75v45.5c0 0.967 0.784 1.75 1.75 1.75h45.5c0.967 0 1.75-0.783 1.75-1.75v-45.5c0-0.966-0.783-1.75-1.75-1.75zM28 3.5c1.933 0 3.5 1.567 3.5 3.5s-1.567 3.5-3.5 3.5c-1.933 0-3.5-1.567-3.5-3.5s1.567-3.5 3.5-3.5zM49 52.5h-42v-42h7v5.25c0 0.966 0.784 1.75 1.75 1.75h24.5c0.967 0 1.75-0.784 1.75-1.75v-5.25h7v42z"></path>
<path fill="#50e3c2" d="M24.5 46.95l-11.225-12.975 3.2-3.2 8.025 6.275 15.025-13.275 3.2 3.2z"></path>
</svg>
