<?xml version="1.0" encoding="UTF-8" standalone="no"?>
<svg width="63px" height="56px" viewBox="0 0 63 56" version="1.1" xmlns="http://www.w3.org/2000/svg" xmlns:xlink="http://www.w3.org/1999/xlink">
    <!-- Generator: Sketch 3.6.1 (26313) - http://www.bohemiancoding.com/sketch -->
    <title>bubbles</title>
    <desc>Created with Sketch.</desc>
    <defs></defs>

        <g id="bubbles" transform="translate(0.000000, -1.000000)" fill="#50E3C2">
            <path d="M59.5,50.283 C59.5,52.771 60.923,54.926 63,55.981 L63,56.853 C62.419,56.933 61.826,56.975 61.223,56.975 C57.504,56.975 54.149,55.415 51.777,52.914 C50.343,53.296 48.824,53.502 47.25,53.502 C38.552,53.502 31.5,47.234 31.5,39.502 C31.5,31.77 38.552,25.502 47.25,25.502 C55.948,25.502 63,31.77 63,39.502 C63,42.529 61.919,45.331 60.082,47.621 C59.709,48.432 59.5,49.333 59.5,50.284 L59.5,50.283 Z M16,17 L5,17 L5,22 L16,22 L16,32 L21,32 L21,22 L31,22 L31,17 L21,17 L21,6 L16,6 L16,17 Z M28,1 C43.228,1 55.617,10.877 55.991,23.177 C53.301,21.978 50.326,21.344 47.25,21.344 C42.024,21.344 37.088,23.173 33.352,26.494 C29.478,29.938 27.344,34.557 27.344,39.5 C27.344,41.943 27.866,44.306 28.861,46.488 C28.575,46.495 28.289,46.5 28,46.5 C26.515,46.5 25.057,46.405 23.635,46.224 C17.621,52.238 10.442,53.317 3.5,53.475 L3.5,52.003 C7.248,50.167 10.5,46.822 10.5,42.999 C10.5,42.466 10.459,41.942 10.382,41.43 C4.049,37.259 0,30.889 0,23.749 C0,11.185 12.536,0.999 28,0.999 L28,1 Z" id="Shape"></path>
        </g>

</svg>
