<?xml version="1.0" encoding="utf-8"?>
<!-- Generated by IcoMoon.io -->
<!DOCTYPE svg PUBLIC "-//W3C//DTD SVG 1.1//EN" "http://www.w3.org/Graphics/SVG/1.1/DTD/svg11.dtd">
<svg version="1.1" xmlns="http://www.w3.org/2000/svg" xmlns:xlink="http://www.w3.org/1999/xlink" width="56" height="56" viewBox="0 0 56 56">
<path fill="#50e3c2" d="M47.25 0h-42c-2.887 0-5.25 2.363-5.25 5.25v45.5c0 2.887 2.363 5.25 5.25 5.25h42c2.887 0 5.25-2.363 5.25-5.25v-45.5c0-2.887-2.363-5.25-5.25-5.25zM45.5 49h-38.5v-42h38.5v42zM14 31.5h24.5v3.5h-24.5zM14 38.5h24.5v3.5h-24.5zM17.5 15.75c0-2.899 2.351-5.25 5.25-5.25s5.25 2.351 5.25 5.25c0 2.899-2.351 5.25-5.25 5.25s-5.25-2.351-5.25-5.25zM26.25 21h-7c-2.887 0-5.25 1.575-5.25 3.5v3.5h17.5v-3.5c0-1.925-2.363-3.5-5.25-3.5z"></path>
</svg>
