<svg style="position: absolute; width: 0; height: 0;" width="0" height="0" version="1.1" xmlns="http://www.w3.org/2000/svg" xmlns:xlink="http://www.w3.org/1999/xlink">
<defs>
<symbol id="icon-profile" viewBox="0 0 56 56">
<title>profile</title>
<path class="path1" d="M47.25 0h-42c-2.887 0-5.25 2.363-5.25 5.25v45.5c0 2.887 2.363 5.25 5.25 5.25h42c2.887 0 5.25-2.363 5.25-5.25v-45.5c0-2.887-2.363-5.25-5.25-5.25zM45.5 49h-38.5v-42h38.5v42zM14 31.5h24.5v3.5h-24.5zM14 38.5h24.5v3.5h-24.5zM17.5 15.75c0-2.899 2.351-5.25 5.25-5.25s5.25 2.351 5.25 5.25c0 2.899-2.351 5.25-5.25 5.25s-5.25-2.351-5.25-5.25zM26.25 21h-7c-2.887 0-5.25 1.575-5.25 3.5v3.5h17.5v-3.5c0-1.925-2.363-3.5-5.25-3.5z"></path>
</symbol>
<symbol id="icon-user" viewBox="0 0 56 56">
<title>user</title>
<path class="path1" d="M31.5 38.643v-2.886c3.855-2.173 7-7.589 7-13.006 0-8.698 0-15.75-10.5-15.75s-10.5 7.052-10.5 15.75c0 5.417 3.145 10.834 7 13.006v2.886c-11.873 0.971-21 6.804-21 13.857h49c0-7.053-9.127-12.887-21-13.857z"></path>
</symbol>
<symbol id="icon-aid-kit" viewBox="0 0 56 56">
<title>aid-kit</title>
<path class="path1" d="M49 14h-10.5v-7c0-1.925-1.575-3.5-3.5-3.5h-14c-1.925 0-3.5 1.575-3.5 3.5v7h-10.5c-3.85 0-7 3.15-7 7v28c0 3.85 3.15 7 7 7h42c3.85 0 7-3.15 7-7v-28c0-3.85-3.15-7-7-7zM21 7h14v7h-14v-7zM42 38.5h-10.5v10.5h-7v-10.5h-10.5v-7h10.5v-10.5h7v10.5h10.5v7z"></path>
</symbol>
<symbol id="icon-clipboard" viewBox="0 0 56 56">
<title>clipboard</title>
<path class="path1" d="M50.75 7h-15.75c0-3.866-3.134-7-7-7s-7 3.134-7 7h-15.75c-0.966 0-1.75 0.784-1.75 1.75v45.5c0 0.967 0.784 1.75 1.75 1.75h45.5c0.967 0 1.75-0.783 1.75-1.75v-45.5c0-0.966-0.783-1.75-1.75-1.75zM28 3.5c1.933 0 3.5 1.567 3.5 3.5s-1.567 3.5-3.5 3.5c-1.933 0-3.5-1.567-3.5-3.5s1.567-3.5 3.5-3.5zM49 52.5h-42v-42h7v5.25c0 0.966 0.784 1.75 1.75 1.75h24.5c0.967 0 1.75-0.784 1.75-1.75v-5.25h7v42z"></path>
<path class="path2" d="M24.5 46.95l-11.225-12.975 3.2-3.2 8.025 6.275 15.025-13.275 3.2 3.2z"></path>
</symbol>
<symbol id="icon-logo" viewBox="0 0 63 56">
<title>logo</title>
<g id="logo" transform="translate(0.000000, -1.000000)" >
        <path d="M59.5,50.283 C59.5,52.771 60.923,54.926 63,55.981 L63,56.853 C62.419,56.933 61.826,56.975 61.223,56.975 C57.504,56.975 54.149,55.415 51.777,52.914 C50.343,53.296 48.824,53.502 47.25,53.502 C38.552,53.502 31.5,47.234 31.5,39.502 C31.5,31.77 38.552,25.502 47.25,25.502 C55.948,25.502 63,31.77 63,39.502 C63,42.529 61.919,45.331 60.082,47.621 C59.709,48.432 59.5,49.333 59.5,50.284 L59.5,50.283 L59.5,50.283 Z M19,18 L8,18 L8,23 L19,23 L19,33 L24,33 L24,23 L34,23 L34,18 L24,18 L24,7 L19,7 L19,18 L19,18 Z M28,1 C43.228,1 55.617,10.877 55.991,23.177 C53.301,21.978 50.326,21.344 47.25,21.344 C42.024,21.344 37.088,23.173 33.352,26.494 C29.478,29.938 27.344,34.557 27.344,39.5 C27.344,41.943 27.866,44.306 28.861,46.488 C28.575,46.495 28.289,46.5 28,46.5 C26.515,46.5 25.057,46.405 23.635,46.224 C17.621,52.238 10.442,53.317 3.5,53.475 L3.5,52.003 C7.248,50.167 10.5,46.822 10.5,42.999 C10.5,42.466 10.459,41.942 10.382,41.43 C4.049,37.259 0,30.889 0,23.749 C0,11.185 12.536,0.999 28,0.999 L28,1 L28,1 Z" id="Shape"></path>
</g>
</symbol>
</defs>
</svg>
